<svg width="40" height="40" viewBox="0 0 40 40" fill="none" xmlns="http://www.w3.org/2000/svg">
<rect x="0.5" y="0.5" width="39" height="39" rx="3.5" stroke="black" stroke-opacity="0.12"/>
<g clip-path="url(#clip0_5698_85)">
<path d="M30 13.72L25.4 9.85999L24.11 11.39L28.71 15.25L30 13.72ZM15.88 11.39L14.6 9.85999L10 13.71L11.29 15.24L15.88 11.39ZM20 12C15.03 12 11 16.03 11 21C11 25.97 15.02 30 20 30C24.97 30 29 25.97 29 21C29 16.03 24.97 12 20 12ZM20 28C16.13 28 13 24.87 13 21C13 17.13 16.13 14 20 14C23.87 14 27 17.13 27 21C27 24.87 23.87 28 20 28ZM18.54 22.53L16.41 20.4L15.35 21.46L18.53 24.64L24.53 18.64L23.47 17.58L18.54 22.53Z" fill="black" fill-opacity="0.87"/>
</g>
<defs>
<clipPath id="clip0_5698_85">
<rect width="24" height="24" fill="white" transform="translate(8 8)"/>
</clipPath>
</defs>
</svg>
